<?xml version="1.0" encoding="utf-8"?>
<!-- Generator: Adobe Illustrator 16.0.0, SVG Export Plug-In . SVG Version: 6.00 Build 0)  -->
<!DOCTYPE svg PUBLIC "-//W3C//DTD SVG 1.1//EN" "http://www.w3.org/Graphics/SVG/1.1/DTD/svg11.dtd">
<svg version="1.1" id="Layer_1" xmlns="http://www.w3.org/2000/svg" xmlns:xlink="http://www.w3.org/1999/xlink" x="0px" y="0px"
	 width="400px" height="400px" viewBox="0 0 400 400" enable-background="new 0 0 400 400" xml:space="preserve">
<g id="Layer_1_1_">
	<g>
		<path fill="#333333" d="M199.999,0c-110.456,0-200,89.544-200,200c0,110.456,89.544,200,200,200s200.003-89.544,200.003-200
			C400.002,89.541,310.454,0,199.999,0z M199.999,379.994c-99.25,0-179.994-80.743-179.994-179.994c0-99.252,80.744-180,179.994-180
			S380,100.748,380,200C380,299.251,299.249,379.994,199.999,379.994z"/>
		<path fill="#333333" d="M89.996,139.997c5.525,0,10.003,4.479,10.003,10.003c0,5.521-4.478,9.999-10.003,9.999
			c-5.521,0-9.996-4.478-9.996-9.999C80,144.476,84.475,139.997,89.996,139.997z"/>
		<circle fill="#333333" cx="309.998" cy="149.998" r="10.001"/>
		<path fill="#333333" d="M309.998,189.997c-5.524,0-9.999,4.482-9.999,10.003c0,55.139-44.865,100-100,100
			c-55.139,0-100-44.865-100-100c0-5.524-4.475-10.003-9.996-10.003C84.475,189.997,80,194.479,80,200
			c0,66.17,53.836,119.998,119.999,119.998c66.177,0,120.006-53.828,120.006-119.998
			C320.005,194.479,315.522,189.997,309.998,189.997z"/>
	</g>
</g>
</svg>
