<?xml version="1.0" encoding="utf-8"?>
<!-- Generator: Adobe Illustrator 16.0.0, SVG Export Plug-In . SVG Version: 6.00 Build 0)  -->
<!DOCTYPE svg PUBLIC "-//W3C//DTD SVG 1.1//EN" "http://www.w3.org/Graphics/SVG/1.1/DTD/svg11.dtd">
<svg version="1.1" id="Layer_1" xmlns="http://www.w3.org/2000/svg" xmlns:xlink="http://www.w3.org/1999/xlink" x="0px" y="0px"
	 width="474.614px" height="227.41px" viewBox="0 0 474.614 227.41" enable-background="new 0 0 474.614 227.41"
	 xml:space="preserve">
<g>
	<path fill="#190100" d="M127.801,165.93c-8.133,8.131-19.88,12.105-33.252,12.105H49.372V49.373h45.177
		c13.372,0,25.119,3.978,33.252,12.11c13.914,13.913,13.009,32.704,13.009,51.317S141.715,152.016,127.801,165.93z M114.429,75.576
		c-5.423-5.963-12.651-8.674-21.868-8.674H68.889v93.605h23.672c9.217,0,16.445-2.711,21.868-8.674
		c6.687-7.41,6.864-21.322,6.864-39.033C121.293,95.092,121.115,82.985,114.429,75.576z"/>
	<path fill="#190100" d="M166.111,178.035V49.373h19.515v128.662H166.111z"/>
	<path fill="#190100" d="M294.049,165.93c-8.133,8.131-19.88,12.105-33.252,12.105h-45.176V49.373h45.176
		c13.372,0,25.119,3.978,33.252,12.11c13.913,13.913,13.009,32.704,13.009,51.317S307.962,152.016,294.049,165.93z M280.677,75.576
		c-5.423-5.963-12.651-8.674-21.867-8.674h-23.673v93.605h23.673c9.216,0,16.444-2.711,21.867-8.674
		c6.685-7.41,6.864-21.322,6.864-39.033C287.541,95.092,287.361,82.985,280.677,75.576z"/>
	<path fill="#190100" d="M404.46,178.035l-8.854-25.84h-50.779l-8.855,25.84h-20.78l47.163-128.662h15.722l47.166,128.662H404.46z
		 M370.667,78.469l-20.06,57.102h39.575L370.667,78.469z"/>
</g>
<path fill="#FF1E00" d="M455.806,208.602H18.809V18.81h436.997V208.602z M474.614,0H0v227.41h474.614V0z"/>
</svg>
